<mxfile host="app.diagrams.net" modified="2024-03-10T06:12:26.494Z" agent="Mozilla/5.0 (Macintosh; Intel Mac OS X 10_15_7) AppleWebKit/537.36 (KHTML, like Gecko) Chrome/122.0.0.0 Safari/537.36" etag="PGRWrK3sp4mZHGR9l3EN" version="24.0.4" type="github">
  <diagram name="Page-1" id="FUfZHwvdXFqlrj_hrjtH">
    <mxGraphModel dx="984" dy="664" grid="1" gridSize="10" guides="1" tooltips="1" connect="1" arrows="1" fold="1" page="1" pageScale="1" pageWidth="850" pageHeight="1100" math="0" shadow="0">
      <root>
        <mxCell id="0" />
        <mxCell id="1" parent="0" />
        <mxCell id="PF2IGVajCLgbQbKQB4Ny-1" value="AWS Cloud" style="points=[[0,0],[0.25,0],[0.5,0],[0.75,0],[1,0],[1,0.25],[1,0.5],[1,0.75],[1,1],[0.75,1],[0.5,1],[0.25,1],[0,1],[0,0.75],[0,0.5],[0,0.25]];outlineConnect=0;gradientColor=none;html=1;whiteSpace=wrap;fontSize=12;fontStyle=0;container=1;pointerEvents=0;collapsible=0;recursiveResize=0;shape=mxgraph.aws4.group;grIcon=mxgraph.aws4.group_aws_cloud_alt;strokeColor=#232F3E;fillColor=none;verticalAlign=top;align=left;spacingLeft=30;fontColor=#232F3E;dashed=0;" vertex="1" parent="1">
          <mxGeometry width="800" height="780" as="geometry" />
        </mxCell>
        <mxCell id="PF2IGVajCLgbQbKQB4Ny-10" value="" style="group" vertex="1" connectable="0" parent="PF2IGVajCLgbQbKQB4Ny-1">
          <mxGeometry x="40" y="80" width="720" height="700" as="geometry" />
        </mxCell>
        <mxCell id="PF2IGVajCLgbQbKQB4Ny-2" value="Region" style="points=[[0,0],[0.25,0],[0.5,0],[0.75,0],[1,0],[1,0.25],[1,0.5],[1,0.75],[1,1],[0.75,1],[0.5,1],[0.25,1],[0,1],[0,0.75],[0,0.5],[0,0.25]];outlineConnect=0;gradientColor=none;html=1;whiteSpace=wrap;fontSize=12;fontStyle=0;container=1;pointerEvents=0;collapsible=0;recursiveResize=0;shape=mxgraph.aws4.group;grIcon=mxgraph.aws4.group_region;strokeColor=#00A4A6;fillColor=none;verticalAlign=top;align=left;spacingLeft=30;fontColor=#147EBA;dashed=1;" vertex="1" parent="PF2IGVajCLgbQbKQB4Ny-10">
          <mxGeometry width="720" height="700" as="geometry" />
        </mxCell>
        <mxCell id="PF2IGVajCLgbQbKQB4Ny-3" value="VPC" style="points=[[0,0],[0.25,0],[0.5,0],[0.75,0],[1,0],[1,0.25],[1,0.5],[1,0.75],[1,1],[0.75,1],[0.5,1],[0.25,1],[0,1],[0,0.75],[0,0.5],[0,0.25]];outlineConnect=0;gradientColor=none;html=1;whiteSpace=wrap;fontSize=12;fontStyle=0;container=1;pointerEvents=0;collapsible=0;recursiveResize=0;shape=mxgraph.aws4.group;grIcon=mxgraph.aws4.group_vpc2;strokeColor=#8C4FFF;fillColor=none;verticalAlign=top;align=left;spacingLeft=30;fontColor=#AAB7B8;dashed=0;" vertex="1" parent="PF2IGVajCLgbQbKQB4Ny-10">
          <mxGeometry y="35" width="720" height="665" as="geometry" />
        </mxCell>
        <mxCell id="PF2IGVajCLgbQbKQB4Ny-5" value="Private subnet" style="points=[[0,0],[0.25,0],[0.5,0],[0.75,0],[1,0],[1,0.25],[1,0.5],[1,0.75],[1,1],[0.75,1],[0.5,1],[0.25,1],[0,1],[0,0.75],[0,0.5],[0,0.25]];outlineConnect=0;gradientColor=none;html=1;whiteSpace=wrap;fontSize=12;fontStyle=0;container=1;pointerEvents=0;collapsible=0;recursiveResize=0;shape=mxgraph.aws4.group;grIcon=mxgraph.aws4.group_security_group;grStroke=0;strokeColor=#00A4A6;fillColor=#E6F6F7;verticalAlign=top;align=left;spacingLeft=30;fontColor=#147EBA;dashed=0;" vertex="1" parent="PF2IGVajCLgbQbKQB4Ny-3">
          <mxGeometry x="240" y="45" width="130" height="525" as="geometry" />
        </mxCell>
        <mxCell id="PF2IGVajCLgbQbKQB4Ny-6" value="Private subnet" style="points=[[0,0],[0.25,0],[0.5,0],[0.75,0],[1,0],[1,0.25],[1,0.5],[1,0.75],[1,1],[0.75,1],[0.5,1],[0.25,1],[0,1],[0,0.75],[0,0.5],[0,0.25]];outlineConnect=0;html=1;whiteSpace=wrap;fontSize=12;fontStyle=0;container=1;pointerEvents=0;collapsible=0;recursiveResize=0;shape=mxgraph.aws4.group;grIcon=mxgraph.aws4.group_security_group;grStroke=0;strokeColor=#56517e;fillColor=#d0cee2;verticalAlign=top;align=left;spacingLeft=30;dashed=0;" vertex="1" parent="PF2IGVajCLgbQbKQB4Ny-3">
          <mxGeometry x="400" y="45" width="130" height="525" as="geometry" />
        </mxCell>
        <mxCell id="PF2IGVajCLgbQbKQB4Ny-4" value="Public subnet" style="points=[[0,0],[0.25,0],[0.5,0],[0.75,0],[1,0],[1,0.25],[1,0.5],[1,0.75],[1,1],[0.75,1],[0.5,1],[0.25,1],[0,1],[0,0.75],[0,0.5],[0,0.25]];outlineConnect=0;gradientColor=none;html=1;whiteSpace=wrap;fontSize=12;fontStyle=0;container=1;pointerEvents=0;collapsible=0;recursiveResize=0;shape=mxgraph.aws4.group;grIcon=mxgraph.aws4.group_security_group;grStroke=0;strokeColor=#7AA116;fillColor=#F2F6E8;verticalAlign=top;align=left;spacingLeft=30;fontColor=#248814;dashed=0;" vertex="1" parent="PF2IGVajCLgbQbKQB4Ny-3">
          <mxGeometry x="80" y="45" width="130" height="525" as="geometry" />
        </mxCell>
        <mxCell id="PF2IGVajCLgbQbKQB4Ny-7" value="az-a&lt;div&gt;&lt;br&gt;&lt;/div&gt;" style="fillColor=none;strokeColor=#147EBA;dashed=1;verticalAlign=top;fontStyle=0;fontColor=#147EBA;whiteSpace=wrap;html=1;portConstraintRotation=0;rounded=1;glass=0;shadow=0;textShadow=0;enumerate=0;treeFolding=0;rotatable=1;rotation=-90;" vertex="1" parent="PF2IGVajCLgbQbKQB4Ny-4">
          <mxGeometry x="153.75" y="-141.25" width="130" height="517.5" as="geometry" />
        </mxCell>
        <mxCell id="PF2IGVajCLgbQbKQB4Ny-8" value="az-b" style="fillColor=none;strokeColor=#147EBA;dashed=1;verticalAlign=top;fontStyle=0;fontColor=#147EBA;whiteSpace=wrap;html=1;portConstraintRotation=0;rounded=1;glass=0;shadow=0;textShadow=0;enumerate=0;treeFolding=0;rotatable=1;rotation=-90;" vertex="1" parent="1">
          <mxGeometry x="274.75" y="165.75" width="130" height="519.5" as="geometry" />
        </mxCell>
        <mxCell id="PF2IGVajCLgbQbKQB4Ny-9" value="az-c&lt;div&gt;&lt;br&gt;&lt;/div&gt;" style="fillColor=none;strokeColor=#147EBA;dashed=1;verticalAlign=top;fontStyle=0;fontColor=#147EBA;whiteSpace=wrap;html=1;portConstraintRotation=0;rounded=1;glass=0;shadow=0;textShadow=0;enumerate=0;treeFolding=0;rotatable=1;rotation=-90;" vertex="1" parent="1">
          <mxGeometry x="274.75" y="325.75" width="130" height="519.5" as="geometry" />
        </mxCell>
      </root>
    </mxGraphModel>
  </diagram>
</mxfile>
